<svg width="82" height="81" viewBox="0 0 82 81" fill="none" xmlns="http://www.w3.org/2000/svg">
<rect x="1.95297" y="1.20297" width="78.5941" height="78.5941" rx="39.297" fill="white" stroke="#D75337" stroke-width="2.40594"/>
<rect x="10.75" y="10" width="61.8019" height="61.8019" rx="30.901" fill="#FFF1EC"/>
<path d="M41.9051 51.7565C42.2141 51.7568 42.5202 51.6959 42.8056 51.5775C43.0911 51.4591 43.3503 51.2853 43.5684 51.0663C43.7864 50.8474 43.9591 50.5874 44.0763 50.3014C44.1935 50.0155 44.2531 49.7092 44.2515 49.4001C44.2515 48.4888 43.7377 47.7421 42.991 47.335C42.6807 47.1704 42.574 47.0537 42.574 46.5788V41.43C42.574 40.9253 42.2832 40.625 41.9051 40.625C41.5369 40.625 41.2361 40.9258 41.2361 41.43V46.578C41.2361 47.0529 41.1294 47.1695 40.8191 47.3342C40.0728 47.7412 39.5586 48.4884 39.5586 49.3993C39.557 49.7084 39.6166 50.0147 39.7338 50.3006C39.8511 50.5866 40.0237 50.8465 40.2417 51.0655C40.4598 51.2845 40.719 51.4582 41.0045 51.5767C41.2899 51.6951 41.596 51.7559 41.9051 51.7557" fill="#D75337"/>
<path d="M41.8195 54.6907C44.6584 54.6907 46.9649 52.3379 46.9649 49.4425C46.9649 47.9142 46.3441 46.5771 45.1707 45.4915C44.9541 45.2903 44.9049 45.1796 44.9049 44.8781L44.9246 35.8501C44.9246 33.7491 43.6726 32.3516 41.8195 32.3516C39.9564 32.3516 38.7043 33.7491 38.7043 35.8501L38.7144 44.8781C38.7144 45.1796 38.6652 45.2903 38.4578 45.4915C37.2752 46.5771 36.6641 47.9142 36.6641 49.4421C36.6641 52.3375 38.9604 54.6907 41.8195 54.6907ZM41.8195 53.2318C39.7692 53.2318 38.1033 51.5229 38.1033 49.4421C38.1033 48.1853 38.6849 47.0494 39.7297 46.3356C40.0354 46.1242 40.1536 45.9333 40.1536 45.5211V35.9105C40.1536 34.6439 40.8337 33.8293 41.8191 33.8293C42.7953 33.8293 43.4657 34.6439 43.4657 35.9105V45.5215C43.4657 45.9337 43.5838 46.1246 43.8896 46.3356C44.9343 47.0498 45.516 48.1857 45.516 49.4425C45.516 51.5233 43.8602 53.2318 41.8195 53.2318Z" fill="#D75337"/>
<path d="M26.6895 39.5578V55.1501C26.6895 56.724 27.9654 57.9999 29.5393 57.9999H53.763C55.3369 57.9999 56.6128 56.724 56.6128 55.1501V39.5578C56.6128 38.7883 56.3016 38.0515 55.75 37.5149L43.6381 25.7344C42.532 24.6585 40.7703 24.6585 39.6641 25.7344L27.5523 37.5149C27.0007 38.0515 26.6895 38.7883 26.6895 39.5578Z" stroke="#222222" stroke-width="2.5"/>
</svg>
