<svg width="81" height="81" viewBox="0 0 81 81" fill="none" xmlns="http://www.w3.org/2000/svg">
<rect x="1.20297" y="1.20297" width="78.5941" height="78.5941" rx="39.297" fill="white" stroke="#D75337" stroke-width="2.40594"/>
<rect x="10" y="10" width="61.8019" height="61.8019" rx="30.901" fill="#FFF1EC"/>
<path d="M56.1483 55.1693L26.4052 25.4111L24.4746 27.3266L33.4941 36.3763C31.3372 38.4275 30.1608 41.61 30.3418 44.6265C30.4323 45.3806 30.5228 46.1348 30.7792 46.8889C30.9903 47.7939 31.3976 48.6988 31.8501 49.4982C33.479 52.1075 36.2994 53.9778 39.3311 54.3548C42.5588 54.7621 46.0127 54.1738 48.4863 51.9416C48.5919 51.8511 48.6673 51.7304 48.7728 51.6249L54.2328 57.0848L56.1483 55.1693ZM36.0732 43.993C35.7263 44.1438 35.3643 44.0534 35.0777 43.812C34.9921 43.7403 34.9206 43.6534 34.8666 43.5556C33.3583 41.61 32.9662 38.9252 33.7505 36.6025L35.7414 38.5934C35.7414 39.9961 35.9676 41.3988 36.4804 42.7412C36.5408 42.892 36.6011 43.0428 36.6011 43.2389C36.6011 43.5707 36.3749 43.8724 36.0732 43.993ZM44.6703 49.1966C44.248 49.5585 43.5542 49.9507 43.0113 50.1015C41.322 50.7048 39.6327 49.8602 38.6373 48.8647C40.4321 48.4424 41.503 47.1151 41.8197 45.7728C41.8951 45.4259 41.8951 45.0639 41.865 44.717L45.4245 48.2614C45.1982 48.6083 44.9569 48.9401 44.6703 49.1966ZM51.3369 46.5118L37.3552 32.5453C38.0641 31.3236 38.9691 30.2225 40.0852 29.3176C41.1561 28.4578 42.4079 27.6735 43.8408 27.3266C42.4079 30.1169 42.9057 33.7519 45.153 35.9539C46.1183 36.9042 47.2646 37.5527 48.2751 38.4577C48.6673 38.8498 49.0896 39.242 49.4365 39.6945C49.4365 39.6945 50.2811 40.9011 50.5979 41.5949L50.7939 41.987C51.3972 43.45 51.5481 45.0036 51.3369 46.5118Z" fill="#D75337"/>
<path d="M25.3066 26.0908L55.8651 56.6493" stroke="#222222" stroke-width="3.01654"/>
</svg>
