<svg width="82" height="81" viewBox="0 0 82 81" fill="none" xmlns="http://www.w3.org/2000/svg">
<rect x="1.95297" y="1.20297" width="78.5941" height="78.5941" rx="39.297" fill="white" stroke="#D75337" stroke-width="2.40594"/>
<rect x="10.75" y="10" width="61.8019" height="61.8019" rx="30.901" fill="#FFF1EC"/>
<path d="M42.0061 28.3608L42.0061 28.3608L32.4982 34.6307L32.4959 34.6322C32.2163 34.8157 31.8891 34.9132 31.5547 34.9127M42.0061 28.3608L31.5563 33.599M42.0061 28.3608C42.9755 27.7215 44.2691 28.4176 44.2691 29.5797V52.2217C44.2691 53.3847 42.9761 54.0803 42.0061 53.4406L42.0059 53.4405L32.5023 47.176M42.0061 28.3608L32.5023 47.176M31.5547 34.9127C31.5538 34.9127 31.5529 34.9127 31.552 34.9127L31.5563 33.599M31.5547 34.9127H31.5563V33.599M31.5547 34.9127H26.9601C26.1525 34.9127 25.3781 35.2335 24.807 35.8045C24.236 36.3755 23.9152 37.15 23.9152 37.9575V43.8439C23.9152 44.6514 24.236 45.4259 24.807 45.9969C25.3781 46.5679 26.1525 46.8887 26.9601 46.8887H31.5563H31.5652V46.8888C31.8974 46.891 32.2217 46.99 32.4985 47.1735L32.4964 47.1721L31.7734 48.2689M31.5563 33.599H26.9601C25.8041 33.599 24.6955 34.0582 23.8781 34.8756C23.0608 35.693 22.6016 36.8016 22.6016 37.9575V43.8439C22.6016 44.9998 23.0608 46.1084 23.8781 46.9258C24.6955 47.7432 25.8041 48.2024 26.9601 48.2024H31.5563C31.6336 48.2029 31.7091 48.226 31.7734 48.2689M31.7734 48.2689L32.5023 47.176M31.7734 48.2689L41.2829 54.5373L32.5023 47.176" stroke="#222222" stroke-width="2.62731"/>
<path d="M50.6797 35.5615L60.6995 45.5814" stroke="#D75337" stroke-width="2.62731" stroke-linecap="round"/>
<path d="M60.6992 35.5615L50.6794 45.5814" stroke="#D75337" stroke-width="2.62731" stroke-linecap="round"/>
</svg>
