<svg width="274" height="39" viewBox="0 0 274 39" fill="none" xmlns="http://www.w3.org/2000/svg">
<path d="M20.5144 0L6.46821 14.0462L7.70038 15.2783H5.23605L0 20.5144V38.9995H2.71571L6.984 34.7325L6.9827 34.7312L8.56133 33.1538L10.9566 30.7598L10.9553 30.7585L12.5991 29.1161L14.9944 26.7221L14.9931 26.7208L16.7671 24.9481L30.8185 38.9995H41.0287V20.5144L20.5144 0ZM3.3865 21.9159L8.56133 16.741L10.3353 18.515L3.3865 25.4639V21.9159ZM3.3865 33.5394V30.2519L12.7293 20.9103L14.3731 22.5528L3.3865 33.5394ZM32.2212 35.613L10.9553 14.347L12.4688 12.8335L35.2483 35.613H32.2212ZM37.6422 33.219L14.8628 10.4395L16.5066 8.79578L37.6422 29.9314V33.219ZM37.6422 25.1435L18.9006 6.40179L20.5144 4.78799L37.6422 21.9159V25.1435Z" fill="#D75438"/>
<path d="M11.2521 38.9994H2.7168L6.98509 34.7324L11.2521 38.9994Z" fill="#D75438"/>
<path d="M19.1955 38.9994H14.4075L11.021 35.6129L8.56055 33.1538L10.9558 30.7598L19.1955 38.9994Z" fill="#D75438"/>
<path d="M27.2723 38.999H22.4843L19.0978 35.6125L12.5996 29.1157L14.9949 26.7217L27.2723 38.999Z" fill="#D75438"/>
<path d="M76.4131 14.5663H79.7829L75.2971 30.1025H71.2489L68.6888 19.074L65.6253 30.1025H61.5552L57.6821 14.5663H61.2926L63.8091 25.3541L66.785 14.5663H71.0301L73.459 25.3104L76.4131 14.5663ZM88.692 30.3214C87.0581 30.3359 85.6577 30.0369 84.4906 29.4242C83.3236 28.8115 82.4264 27.9289 81.7991 26.7765C81.1719 25.624 80.8582 24.2382 80.8582 22.6189C80.8582 20.9996 81.1865 19.57 81.8429 18.33C82.514 17.0755 83.4549 16.0981 84.6657 15.3978C85.8765 14.6976 87.3134 14.3475 88.9764 14.3475C90.4498 14.3475 91.7409 14.6684 92.8496 15.3103C93.9582 15.9522 94.8189 16.8493 95.4316 18.0018C96.0589 19.1397 96.3726 20.4818 96.3726 22.0281C96.3726 23.6911 96.0443 25.1426 95.3879 26.3826C94.7314 27.6226 93.8197 28.5854 92.6526 29.271C91.5002 29.9567 90.18 30.3068 88.692 30.3214ZM88.5607 27.1485C89.8007 27.1485 90.8072 26.7035 91.5804 25.8137C92.3536 24.9092 92.7402 23.6619 92.7402 22.0718C92.7402 20.686 92.39 19.5846 91.6898 18.7677C90.9896 17.9361 90.0487 17.5204 88.867 17.5204C88.0063 17.5204 87.2478 17.7319 86.5913 18.155C85.9348 18.578 85.417 19.1688 85.0377 19.9274C84.673 20.6714 84.4906 21.5467 84.4906 22.5532C84.4906 24.012 84.848 25.1426 85.5629 25.945C86.2923 26.7473 87.2915 27.1485 88.5607 27.1485ZM106.663 30.3214C105.029 30.3359 103.628 30.0369 102.461 29.4242C101.294 28.8115 100.397 27.9289 99.7697 26.7765C99.1425 25.624 98.8288 24.2382 98.8288 22.6189C98.8288 20.9996 99.157 19.57 99.8135 18.33C100.485 17.0755 101.425 16.0981 102.636 15.3978C103.847 14.6976 105.284 14.3475 106.947 14.3475C108.42 14.3475 109.711 14.6684 110.82 15.3103C111.929 15.9522 112.79 16.8493 113.402 18.0018C114.03 19.1397 114.343 20.4818 114.343 22.0281C114.343 23.6911 114.015 25.1426 113.358 26.3826C112.702 27.6226 111.79 28.5854 110.623 29.271C109.471 29.9567 108.151 30.3068 106.663 30.3214ZM106.531 27.1485C107.771 27.1485 108.778 26.7035 109.551 25.8137C110.324 24.9092 110.711 23.6619 110.711 22.0718C110.711 20.686 110.361 19.5846 109.66 18.7677C108.96 17.9361 108.019 17.5204 106.838 17.5204C105.977 17.5204 105.218 17.7319 104.562 18.155C103.905 18.578 103.388 19.1688 103.008 19.9274C102.644 20.6714 102.461 21.5467 102.461 22.5532C102.461 24.012 102.819 25.1426 103.533 25.945C104.263 26.7473 105.262 27.1485 106.531 27.1485ZM117.478 30.1025V14.5663H122.511C125.574 14.5663 127.886 15.2155 129.447 16.5138C131.008 17.8121 131.789 19.7378 131.789 22.2907C131.789 23.837 131.438 25.1937 130.738 26.3607C130.038 27.5278 129.061 28.4468 127.806 29.1178C126.551 29.7743 125.1 30.1025 123.452 30.1025H117.478ZM121.045 26.9296H123.298C124.888 26.9296 126.092 26.5504 126.909 25.7918C127.74 25.0186 128.156 23.8881 128.156 22.4001C128.156 20.8246 127.726 19.6575 126.865 18.899C126.019 18.1258 124.713 17.7392 122.948 17.7392H121.045V26.9296ZM145.549 17.6517H138.415V20.737H145.089V23.8224H138.415V27.0172H145.768L145.549 30.1025H134.914V14.5663H145.549V17.6517ZM158.527 14.5663H161.962V30.1025H158.79L151.897 20.4526V30.1025H148.461V14.5663H151.634L158.527 24.2163V14.5663ZM165.769 30.1025V14.5663H169.336V20.7152H175.835V14.5663H179.424V30.1025H175.835V23.8443H169.336V30.1025H165.769ZM190.383 30.3214C188.749 30.3359 187.348 30.0369 186.181 29.4242C185.014 28.8115 184.117 27.9289 183.49 26.7765C182.862 25.624 182.549 24.2382 182.549 22.6189C182.549 20.9996 182.877 19.57 183.534 18.33C184.205 17.0755 185.146 16.0981 186.356 15.3978C187.567 14.6976 189.004 14.3475 190.667 14.3475C192.14 14.3475 193.431 14.6684 194.54 15.3103C195.649 15.9522 196.51 16.8493 197.122 18.0018C197.75 19.1397 198.063 20.4818 198.063 22.0281C198.063 23.6911 197.735 25.1426 197.078 26.3826C196.422 27.6226 195.51 28.5854 194.343 29.271C193.191 29.9567 191.871 30.3068 190.383 30.3214ZM190.251 27.1485C191.491 27.1485 192.498 26.7035 193.271 25.8137C194.044 24.9092 194.431 23.6619 194.431 22.0718C194.431 20.686 194.081 19.5846 193.38 18.7677C192.68 17.9361 191.739 17.5204 190.558 17.5204C189.697 17.5204 188.938 17.7319 188.282 18.155C187.625 18.578 187.108 19.1688 186.728 19.9274C186.364 20.6714 186.181 21.5467 186.181 22.5532C186.181 24.012 186.539 25.1426 187.253 25.945C187.983 26.7473 188.982 27.1485 190.251 27.1485ZM211.373 14.5663H214.918L214.962 22.969C214.962 24.4424 214.684 25.7334 214.13 26.8421C213.576 27.9508 212.788 28.8115 211.767 29.4242C210.746 30.0223 209.542 30.3214 208.156 30.3214C205.851 30.3214 204.101 29.7524 202.905 28.6146C201.723 27.4767 201.132 25.7772 201.132 23.5161V14.5663H204.699V23.2316C204.699 24.6175 204.998 25.6167 205.596 26.2294C206.194 26.8421 207.033 27.1485 208.112 27.1485C209.177 27.1485 209.994 26.7984 210.563 26.0981C211.147 25.3833 211.431 24.2746 211.417 22.7721L211.373 14.5663ZM223.71 30.2995C221.799 30.2995 220.318 29.891 219.268 29.0741C218.217 28.2572 217.619 27.0536 217.473 25.4636L220.821 24.9822C220.909 25.7407 221.208 26.3242 221.718 26.7327C222.229 27.1266 222.937 27.3235 223.841 27.3235C224.614 27.3235 225.205 27.1922 225.613 26.9296C226.037 26.6525 226.248 26.2659 226.248 25.7699C226.248 25.3177 226.029 24.9603 225.592 24.6977C225.154 24.4351 224.432 24.1871 223.425 23.9537C222.346 23.6911 221.434 23.3775 220.69 23.0128C219.946 22.6335 219.384 22.1448 219.005 21.5467C218.626 20.9486 218.436 20.19 218.436 19.2709C218.436 18.3081 218.684 17.4547 219.18 16.7108C219.676 15.9668 220.369 15.3905 221.259 14.9821C222.149 14.559 223.177 14.3475 224.344 14.3475C225.861 14.3475 227.101 14.7341 228.064 15.5072C229.027 16.2804 229.581 17.338 229.727 18.6801L226.598 19.2053C226.481 18.6072 226.212 18.1477 225.789 17.8267C225.365 17.4912 224.833 17.3234 224.191 17.3234C223.549 17.3234 223.031 17.4766 222.638 17.783C222.244 18.0747 222.047 18.4759 222.047 18.9865C222.047 19.4533 222.236 19.8326 222.616 20.1243C222.995 20.4015 223.688 20.6641 224.694 20.9121C225.759 21.1747 226.678 21.4737 227.452 21.8093C228.225 22.1302 228.816 22.5751 229.224 23.1441C229.647 23.713 229.859 24.4862 229.859 25.4636C229.859 26.4118 229.603 27.2506 229.093 27.98C228.582 28.7094 227.86 29.2783 226.926 29.6868C226.007 30.0952 224.935 30.2995 223.71 30.2995ZM232.651 30.1025V14.5663H236.218V30.1025H232.651ZM250.089 14.5663H253.524V30.1025H250.351L243.458 20.4526V30.1025H240.023V14.5663H243.196L250.089 24.2163V14.5663ZM265.055 21.6561H271.686V30.1025H268.863L268.6 28.6583C268.104 29.2564 267.462 29.6868 266.675 29.9494C265.902 30.1974 265.085 30.3214 264.224 30.3214C262.678 30.3214 261.335 30.015 260.198 29.4023C259.074 28.7896 258.199 27.9143 257.572 26.7765C256.959 25.624 256.653 24.2455 256.653 22.6408C256.653 21.0069 257.003 19.57 257.703 18.33C258.418 17.0755 259.424 16.0981 260.723 15.3978C262.021 14.6976 263.546 14.3475 265.296 14.3475C266.77 14.3475 268.01 14.6101 269.016 15.1353C270.037 15.6458 270.891 16.4263 271.576 17.4766L268.841 19.4679C268.476 18.8114 267.973 18.3373 267.331 18.0456C266.689 17.7392 266.011 17.586 265.296 17.586C264.275 17.586 263.4 17.7976 262.67 18.2206C261.941 18.6291 261.372 19.2126 260.963 19.9712C260.57 20.7152 260.373 21.5831 260.373 22.5751C260.373 24.0193 260.752 25.1353 261.511 25.9231C262.269 26.7108 263.312 27.1047 264.64 27.1047C265.165 27.1047 265.69 27.0172 266.215 26.8421C266.74 26.6525 267.185 26.368 267.55 25.9887C267.929 25.6094 268.155 25.1353 268.228 24.5664H265.055V21.6561Z" fill="#2D1F34"/>
</svg>
